<svg width="64" height="64" viewBox="0 0 64 64" xmlns="http://www.w3.org/2000/svg">
  <rect width="64" height="64" rx="8" fill="#07090f"/>

  <!-- Crosshair / target shape -->
  <circle cx="32" cy="32" r="16" fill="none" stroke="#ef4444" stroke-width="1.5" opacity="0.5"/>
  <circle cx="32" cy="32" r="9" fill="none" stroke="#ef4444" stroke-width="1.5" opacity="0.75"/>
  <circle cx="32" cy="32" r="3" fill="#ef4444" opacity="0.95"/>

  <!-- Crack lines (broken AI) -->
  <path d="M32 16 L28 24 L34 28 L26 38" fill="none" stroke="#ef4444" stroke-width="1.3" opacity="0.7" stroke-linecap="round"/>
  <path d="M48 32 L40 30 L42 36 L34 34" fill="none" stroke="#ef4444" stroke-width="1.3" opacity="0.5" stroke-linecap="round"/>

  <!-- Corner ticks -->
  <line x1="32" y1="9" x2="32" y2="14" stroke="#ef4444" stroke-width="2" opacity="0.8"/>
  <line x1="32" y1="50" x2="32" y2="55" stroke="#ef4444" stroke-width="2" opacity="0.8"/>
  <line x1="9" y1="32" x2="14" y2="32" stroke="#ef4444" stroke-width="2" opacity="0.8"/>
  <line x1="50" y1="32" x2="55" y2="32" stroke="#ef4444" stroke-width="2" opacity="0.8"/>

  <!-- Corner brackets -->
  <path d="M4 14 L4 4 L14 4" fill="none" stroke="#ef4444" stroke-width="1" opacity="0.35"/>
  <path d="M60 14 L60 4 L50 4" fill="none" stroke="#ef4444" stroke-width="1" opacity="0.35"/>
  <path d="M4 50 L4 60 L14 60" fill="none" stroke="#ef4444" stroke-width="1" opacity="0.35"/>
  <path d="M60 50 L60 60 L50 60" fill="none" stroke="#ef4444" stroke-width="1" opacity="0.35"/>
</svg>